<svg width="18" height="18" viewBox="0 0 18 18" fill="none" xmlns="http://www.w3.org/2000/svg">
<path d="M5.83337 14.0001C4.91671 14.0001 4.17504 14.7501 4.17504 15.6667C4.17504 16.5834 4.91671 17.3334 5.83337 17.3334C6.75004 17.3334 7.50004 16.5834 7.50004 15.6667C7.50004 14.7501 6.75004 14.0001 5.83337 14.0001ZM0.833374 1.50008C0.833374 1.95841 1.20837 2.33341 1.66671 2.33341H2.50004L5.50004 8.65842L4.37504 10.6917C3.76671 11.8084 4.56671 13.1667 5.83337 13.1667H15C15.4584 13.1667 15.8334 12.7917 15.8334 12.3334C15.8334 11.8751 15.4584 11.5001 15 11.5001H5.83337L6.75004 9.83342H12.9584C13.5834 9.83342 14.1334 9.49175 14.4167 8.97508L17.4 3.56675C17.7084 3.01675 17.3084 2.33341 16.675 2.33341H4.34171L3.78337 1.14175C3.65004 0.850081 3.35004 0.666748 3.03337 0.666748H1.66671C1.20837 0.666748 0.833374 1.04175 0.833374 1.50008ZM14.1667 14.0001C13.25 14.0001 12.5084 14.7501 12.5084 15.6667C12.5084 16.5834 13.25 17.3334 14.1667 17.3334C15.0834 17.3334 15.8334 16.5834 15.8334 15.6667C15.8334 14.7501 15.0834 14.0001 14.1667 14.0001Z" fill="#01384D"/>
</svg>
