<svg width="16" height="18" viewBox="0 0 16 18" fill="none" xmlns="http://www.w3.org/2000/svg">
<path fill-rule="evenodd" clip-rule="evenodd" d="M0.916626 7.59821C0.916626 3.76499 4.11986 0.666748 7.9945 0.666748C11.8801 0.666748 15.0833 3.76499 15.0833 7.59821C15.0833 9.52982 14.3808 11.3231 13.2245 12.8431C11.949 14.5197 10.3768 15.9805 8.60708 17.1271C8.20205 17.3921 7.83652 17.4121 7.392 17.1271C5.61224 15.9805 4.04003 14.5197 2.77538 12.8431C1.61828 11.3231 0.916626 9.52982 0.916626 7.59821ZM5.66182 7.81396C5.66182 9.09808 6.70968 10.1081 7.9945 10.1081C9.28016 10.1081 10.3381 9.09808 10.3381 7.81396C10.3381 6.53983 9.28016 5.48069 7.9945 5.48069C6.70968 5.48069 5.66182 6.53983 5.66182 7.81396Z" fill="white"/>
</svg>
