<svg width="122" height="29" viewBox="0 0 122 29" fill="none" xmlns="http://www.w3.org/2000/svg">
<path fill-rule="evenodd" clip-rule="evenodd" d="M3.76058 12.0421L5.41568 13.715C5.89564 14.2001 5.89564 14.9941 5.41568 15.4792L3.76058 17.1522C3.28062 17.6373 2.49503 17.6373 2.01508 17.1522L0.359969 15.4792C-0.11999 14.9941 -0.11999 14.2001 0.359969 13.715L2.01508 12.0421C2.49503 11.5569 3.27954 11.5569 3.76058 12.0421Z" fill="#06A39C"/>
<path fill-rule="evenodd" clip-rule="evenodd" d="M3.76058 21.7631L5.41568 23.436C5.89564 23.9211 5.89564 24.7152 5.41568 25.2003L3.76058 26.8732C3.28062 27.3583 2.49503 27.3583 2.01508 26.8732L0.359969 25.2003C-0.11999 24.7152 -0.11999 23.9211 0.359969 23.436L2.01508 21.7631C2.49503 21.2769 3.27954 21.2769 3.76058 21.7631Z" fill="#06A39C"/>
<path fill-rule="evenodd" clip-rule="evenodd" d="M13.3779 2.3199L15.033 3.9928C15.513 4.47793 15.513 5.27196 15.033 5.75708L13.3779 7.42999C12.8979 7.91512 12.1123 7.91512 11.6324 7.42999L9.97728 5.75708C9.49732 5.27196 9.49732 4.47793 9.97728 3.9928L11.6324 2.3199C12.1134 1.83477 12.8979 1.83477 13.3779 2.3199Z" fill="#30D2A3"/>
<path fill-rule="evenodd" clip-rule="evenodd" d="M13.3778 12.0421L15.0329 13.715C15.5128 14.2001 15.5128 14.9941 15.0329 15.4792L13.3778 17.1522C12.8978 17.6373 12.1122 17.6373 11.6323 17.1522L9.97716 15.4792C9.4972 14.9941 9.4972 14.2001 9.97716 13.715L11.6323 12.0421C12.1133 11.5569 12.8978 11.5569 13.3778 12.0421Z" fill="#30D2A3"/>
<path fill-rule="evenodd" clip-rule="evenodd" d="M13.3778 21.7631L15.0329 23.436C15.5128 23.9211 15.5128 24.7152 15.0329 25.2003L13.3778 26.8732C12.8978 27.3583 12.1122 27.3583 11.6323 26.8732L9.97716 25.2003C9.4972 24.7152 9.4972 23.9211 9.97716 23.436L11.6323 21.7631C12.1133 21.2769 12.8978 21.2769 13.3778 21.7631Z" fill="#06A39C"/>
<path fill-rule="evenodd" clip-rule="evenodd" d="M22.9968 2.3199L24.6519 3.9928C25.1319 4.47793 25.1319 5.27196 24.6519 5.75708L22.9968 7.42999C22.5169 7.91512 21.7313 7.91512 21.2513 7.42999L19.5962 5.75708C19.1162 5.27196 19.1162 4.47793 19.5962 3.9928L21.2513 2.3199C21.7313 1.83477 22.5169 1.83477 22.9968 2.3199Z" fill="#30D2A3"/>
<path fill-rule="evenodd" clip-rule="evenodd" d="M22.9969 12.0421L24.652 13.715C25.132 14.2001 25.132 14.9941 24.652 15.4792L22.9969 17.1522C22.5169 17.6373 21.7314 17.6373 21.2514 17.1522L19.5963 15.4792C19.1163 14.9941 19.1163 14.2001 19.5963 13.715L21.2514 12.0421C21.7314 11.5569 22.5169 11.5569 22.9969 12.0421Z" fill="#30D2A3"/>
<path fill-rule="evenodd" clip-rule="evenodd" d="M22.9969 21.7631L24.652 23.436C25.132 23.9211 25.132 24.7152 24.652 25.2003L22.9969 26.8732C22.5169 27.3583 21.7314 27.3583 21.2514 26.8732L19.5963 25.2003C19.1163 24.7152 19.1163 23.9211 19.5963 23.436L21.2514 21.7631C21.7314 21.2769 22.5169 21.2769 22.9969 21.7631Z" fill="#06A39C"/>
<path fill-rule="evenodd" clip-rule="evenodd" d="M3.76058 2.3199L5.41568 3.9928C5.89564 4.47793 5.89564 5.27196 5.41568 5.75708L3.76058 7.42999C3.28062 7.91512 2.49503 7.91512 2.01508 7.42999L0.359969 5.75708C-0.11999 5.27196 -0.11999 4.47793 0.359969 3.9928L2.01508 2.3199C2.49503 1.83477 3.27954 1.83477 3.76058 2.3199Z" fill="#30D2A3"/>
<path fill-rule="evenodd" clip-rule="evenodd" d="M39.4292 14.6374L39.9953 16.0786C40.0631 16.2613 40.1987 16.3299 40.3795 16.2613L41.9862 15.7349C42.2347 15.6664 42.2573 15.4608 42.1895 15.277L41.8958 14.3165C41.6472 13.4931 41.602 12.6469 41.602 11.7321V7.75215C41.602 4.66413 39.1807 3.45241 36.5107 3.45241C34.2476 3.45241 32.7098 4.07024 31.1935 5.19058C31.0353 5.30479 30.9901 5.53321 31.1483 5.71703L32.0308 6.97443C32.1438 7.13433 32.3924 7.15717 32.5742 7.04296C33.8419 6.2424 34.8599 5.94546 36.5118 5.94546C37.8699 5.94546 38.9783 6.38054 38.9783 7.45521V7.72931L34.9955 8.25576C32.2126 8.62124 30.5608 10.0853 30.5608 12.3956C30.5608 14.7288 32.3708 16.2842 34.9729 16.2842C36.783 16.2842 38.2089 15.7121 39.3173 14.6374H39.4292ZM38.9762 12.053C38.1842 13.1276 36.9627 13.7912 35.2431 13.7912C33.8172 13.7912 33.1844 13.1962 33.1844 12.2586C33.1844 11.458 33.7504 10.8402 34.9945 10.6346L38.9773 9.97109V12.053H38.9762ZM44.8143 0C44.6109 0 44.4979 0.11421 44.4979 0.319789V15.7806C44.4979 15.9862 44.6109 16.1004 44.8143 16.1004H46.3531C46.5339 16.1004 46.6469 16.009 46.6921 15.8263L46.8729 15.0029L47.0311 14.98C47.9587 15.8948 49.2942 16.2842 50.6738 16.2842C54.294 16.2842 57.0328 13.6998 57.0328 9.85797C57.0328 6.01616 54.3629 3.45459 50.6738 3.45459C49.3158 3.45459 48.1847 3.79722 47.1215 4.68915V0.320877C47.1215 0.115299 47.0085 0.00108878 46.8051 0.00108878L44.8143 0ZM47.1226 7.45629C48.0954 6.45015 49.0682 5.96938 50.6749 5.96938C52.8251 5.96938 54.4307 7.47913 54.4307 9.85797C54.4307 12.2596 52.824 13.7694 50.6749 13.7694C49.1586 13.7694 48.0954 13.2886 47.1226 12.214V7.45629ZM59.1603 3.63623C58.9569 3.63623 58.8439 3.75044 58.8439 3.95602V10.8173C58.8439 14.6135 60.9026 16.2831 63.9803 16.2831C65.3384 16.2831 66.5825 15.8948 67.6457 14.9104H67.7813L67.9847 15.8252C68.0299 16.0079 68.1429 16.0993 68.3462 16.0993H69.9529C70.1563 16.0993 70.2693 15.9851 70.2693 15.7795V3.95711C70.2693 3.75153 70.1563 3.63732 69.9529 3.63732H67.9621C67.7587 3.63732 67.6457 3.75153 67.6457 3.95711V12.1683C66.831 13.2429 65.5181 13.7694 64.2515 13.7694C62.3511 13.7694 61.4686 12.8318 61.4686 10.6585V3.95711C61.4686 3.75153 61.3556 3.63732 61.1522 3.63732H59.1603V3.63623ZM73.9357 3.68192L72.4646 3.81897C72.2838 3.84182 72.1935 3.95602 72.1935 4.11592V5.78556C72.1935 5.99114 72.3064 6.10535 72.5098 6.10535H73.9131V12.0976C73.9131 14.5449 75.0893 16.2831 77.8055 16.2831C78.9592 16.2831 79.819 16.0318 80.6562 15.4825C80.8596 15.3683 80.9048 15.2313 80.8144 15.0246L80.2032 13.5606C80.1354 13.4007 79.9998 13.3093 79.7501 13.4235C79.2745 13.6748 78.7321 13.789 78.1208 13.789C77.148 13.789 76.5368 13.194 76.5368 12.028V6.10426H79.8857C80.0891 6.10426 80.2021 5.99005 80.2021 5.78447V3.95494C80.2021 3.74936 80.0891 3.63515 79.8857 3.63515H76.5368V1.21063C76.5368 1.00505 76.3786 0.890839 76.2204 0.890839H74.5018C74.321 0.890839 74.208 1.00505 74.1854 1.21063L73.9357 3.68192ZM92.8532 12.5109C92.7402 12.3739 92.6046 12.3739 92.4916 12.4881C91.3154 13.4714 90.0929 13.7922 88.554 13.7922C86.5632 13.7922 85.1599 12.6947 84.7294 11.1165H94.4136C94.5944 11.1165 94.6848 11.0022 94.6848 10.7967V9.8819C94.6848 6.1543 92.1053 3.45459 88.44 3.45459C84.752 3.45459 81.9906 6.15321 81.9906 9.8819C81.9906 13.5638 84.6832 16.2853 88.553 16.2853C90.363 16.2853 92.2861 15.7588 93.9154 14.3644C94.0284 14.2502 94.051 14.1131 93.938 13.9989L92.8532 12.5109ZM88.44 5.94655C90.2274 5.94655 91.8341 7.04405 92.0149 8.64517H84.7057C85.0684 7.06689 86.6073 5.94655 88.44 5.94655ZM102.876 3.4535C99.2563 3.4535 96.4949 6.15212 96.4949 9.83404C96.4949 13.516 99.2552 16.2842 102.876 16.2842C105.14 16.2842 107.108 15.2781 108.261 13.3571C108.352 13.2429 108.329 13.1059 108.216 12.9917L106.79 11.8485C106.655 11.7343 106.542 11.7343 106.429 11.8485C105.501 13.2212 104.415 13.7694 102.876 13.7694C100.636 13.7694 99.1207 12.0998 99.1207 9.83513C99.1207 7.57051 100.614 5.96938 102.876 5.96938C104.415 5.96938 105.433 6.54153 106.361 7.82177C106.451 7.93598 106.632 8.02734 106.79 7.86745L108.216 6.76994C108.329 6.67857 108.352 6.56436 108.261 6.40447C107.177 4.52816 105.004 3.4535 102.876 3.4535ZM110.797 0C110.593 0 110.48 0.11421 110.48 0.319789V15.7806C110.48 15.9862 110.593 16.1004 110.797 16.1004H112.788C112.991 16.1004 113.104 15.9862 113.104 15.7806V7.41061C114.009 6.40447 115.072 5.96938 116.408 5.96938C118.218 5.96938 119.281 7.0212 119.281 9.2173V15.7817C119.281 15.9872 119.394 16.1015 119.597 16.1015H121.588C121.792 16.1015 121.905 15.9872 121.905 15.7817V9.12594C121.905 5.37549 119.596 3.4535 116.407 3.4535C115.139 3.4535 114.031 3.81897 113.103 4.7109V0.319789C113.103 0.11421 112.99 0 112.787 0H110.797Z" fill="white"/>
<path d="M32.7316 27.4387C32.3859 27.4387 32.0534 27.3916 31.7342 27.2975C31.415 27.1978 31.165 27.0732 30.9841 26.9238L31.3033 26.2926C31.4895 26.431 31.7156 26.5417 31.9816 26.6248C32.2475 26.7078 32.5162 26.7494 32.7875 26.7494C33.4578 26.7494 33.7929 26.55 33.7929 26.1514C33.7929 26.0185 33.7477 25.9133 33.6573 25.8358C33.5668 25.7583 33.4525 25.7029 33.3142 25.6697C33.1812 25.631 32.9896 25.5894 32.7396 25.5451C32.3992 25.4898 32.1199 25.4261 31.9018 25.3541C31.689 25.2822 31.5054 25.1603 31.3512 24.9887C31.1969 24.8171 31.1198 24.5762 31.1198 24.2662C31.1198 23.8675 31.2793 23.5492 31.5985 23.3111C31.9177 23.0675 32.346 22.9457 32.8833 22.9457C33.1652 22.9457 33.4471 22.9817 33.7291 23.0537C34.011 23.1256 34.2425 23.2225 34.4233 23.3443L34.0962 23.9755C33.7504 23.743 33.3434 23.6267 32.8753 23.6267C32.5508 23.6267 32.3034 23.6821 32.1332 23.7928C31.9629 23.9035 31.8778 24.0503 31.8778 24.233C31.8778 24.3769 31.9257 24.4904 32.0215 24.5735C32.1172 24.6565 32.2342 24.7174 32.3726 24.7562C32.5162 24.7949 32.7157 24.8392 32.971 24.8891C33.3115 24.95 33.5855 25.0164 33.7929 25.0884C34.0057 25.1548 34.1866 25.2711 34.3355 25.4372C34.4845 25.6033 34.559 25.8358 34.559 26.1348C34.559 26.5334 34.3941 26.8518 34.0642 27.0899C33.7397 27.3224 33.2955 27.4387 32.7316 27.4387Z" fill="white"/>
<path d="M37.3277 27.4387C36.9075 27.4387 36.5298 27.3418 36.1946 27.148C35.8595 26.9542 35.5961 26.6885 35.4046 26.3507C35.2184 26.0074 35.1253 25.6199 35.1253 25.188C35.1253 24.7562 35.2184 24.3714 35.4046 24.0336C35.5961 23.6904 35.8595 23.4246 36.1946 23.2364C36.5298 23.0426 36.9075 22.9457 37.3277 22.9457C37.748 22.9457 38.123 23.0426 38.4529 23.2364C38.788 23.4246 39.0487 23.6904 39.2349 24.0336C39.4264 24.3714 39.5221 24.7562 39.5221 25.188C39.5221 25.6199 39.4264 26.0074 39.2349 26.3507C39.0487 26.6885 38.788 26.9542 38.4529 27.148C38.123 27.3418 37.748 27.4387 37.3277 27.4387ZM37.3277 26.7411C37.599 26.7411 37.8411 26.6774 38.0539 26.55C38.272 26.4172 38.4422 26.2345 38.5646 26.0019C38.6869 25.7638 38.7481 25.4925 38.7481 25.188C38.7481 24.8835 38.6869 24.615 38.5646 24.3825C38.4422 24.1444 38.272 23.9617 38.0539 23.8343C37.8411 23.707 37.599 23.6433 37.3277 23.6433C37.0564 23.6433 36.8117 23.707 36.5936 23.8343C36.3808 23.9617 36.2106 24.1444 36.0829 24.3825C35.9605 24.615 35.8994 24.8835 35.8994 25.188C35.8994 25.4925 35.9605 25.7638 36.0829 26.0019C36.2106 26.2345 36.3808 26.4172 36.5936 26.55C36.8117 26.6774 37.0564 26.7411 37.3277 26.7411Z" fill="white"/>
<path d="M42.1296 21.8328C41.6721 21.8328 41.4433 22.0903 41.4433 22.6052V22.9872H42.6722V23.6433H41.4593V27.3888H40.6933V23.6433H39.9751V22.9872H40.6933V22.5969C40.6933 22.1595 40.8156 21.8135 41.0603 21.5588C41.305 21.3041 41.6482 21.1768 42.0897 21.1768C42.2599 21.1768 42.4195 21.1989 42.5685 21.2432C42.7174 21.2875 42.8451 21.3512 42.9515 21.4342L42.7201 22.0405C42.5445 21.9021 42.3477 21.8328 42.1296 21.8328Z" fill="white"/>
<path d="M45.7726 27.1314C45.6609 27.231 45.5226 27.3086 45.3577 27.3639C45.1928 27.4137 45.0225 27.4387 44.847 27.4387C44.4214 27.4387 44.0916 27.3196 43.8575 27.0816C43.6234 26.8435 43.5064 26.503 43.5064 26.06V23.6433H42.7882V22.9872H43.5064V22.0239H44.2724V22.9872H45.4853V23.6433H44.2724V26.0268C44.2724 26.2649 44.3283 26.4476 44.44 26.575C44.557 26.7023 44.722 26.766 44.9348 26.766C45.1688 26.766 45.3683 26.6968 45.5332 26.5583L45.7726 27.1314Z" fill="white"/>
<path d="M53.0205 22.9872L51.4405 27.3888H50.7064L49.4855 24.0503L48.2487 27.3888H47.5145L45.9426 22.9872H46.6687L47.8976 26.4919L49.1743 22.9872H49.8207L51.0735 26.5085L52.3342 22.9872H53.0205Z" fill="white"/>
<path d="M55.2054 22.9457C55.7906 22.9457 56.2375 23.0952 56.546 23.3942C56.8599 23.6931 57.0168 24.1388 57.0168 24.7313V27.3888H56.2906V26.8075C56.163 27.0123 55.9794 27.1701 55.7401 27.2809C55.506 27.3861 55.2267 27.4387 54.9022 27.4387C54.4287 27.4387 54.0484 27.3196 53.7611 27.0816C53.4792 26.8435 53.3382 26.5307 53.3382 26.1431C53.3382 25.7555 53.4738 25.4455 53.7451 25.2129C54.0165 24.9749 54.4474 24.8558 55.0378 24.8558H56.2508V24.698C56.2508 24.3548 56.155 24.0918 55.9635 23.9091C55.772 23.7264 55.49 23.635 55.1176 23.635C54.8676 23.635 54.6229 23.6793 54.3835 23.7679C54.1441 23.8509 53.942 23.9644 53.7771 24.1084L53.4579 23.5104C53.676 23.3277 53.9367 23.1893 54.2399 23.0952C54.5431 22.9955 54.865 22.9457 55.2054 22.9457ZM55.0299 26.8241C55.3225 26.8241 55.5751 26.7577 55.7879 26.6248C56.0007 26.4864 56.155 26.2926 56.2508 26.0434V25.4289H55.0698C54.4208 25.4289 54.0963 25.6559 54.0963 26.1099C54.0963 26.3313 54.1787 26.5057 54.3436 26.6331C54.5085 26.7604 54.7373 26.8241 55.0299 26.8241Z" fill="white"/>
<path d="M59.1686 23.7264C59.3015 23.4717 59.4984 23.2779 59.759 23.145C60.0197 23.0121 60.3362 22.9457 60.7086 22.9457V23.7181C60.6661 23.7125 60.6076 23.7098 60.5331 23.7098C60.1181 23.7098 59.791 23.8399 59.5516 24.1001C59.3175 24.3548 59.2005 24.7202 59.2005 25.1963V27.3888H58.4344V22.9872H59.1686V23.7264Z" fill="white"/>
<path d="M65.4361 25.2129C65.4361 25.2738 65.4307 25.3541 65.4201 25.4538H61.9889C62.0367 25.8414 62.199 26.1542 62.4756 26.3922C62.7576 26.6248 63.106 26.7411 63.521 26.7411C64.0263 26.7411 64.4333 26.5639 64.7418 26.2095L65.1648 26.7244C64.9732 26.957 64.7339 27.1341 64.4466 27.256C64.1646 27.3778 63.8481 27.4387 63.497 27.4387C63.0502 27.4387 62.6538 27.3445 62.308 27.1563C61.9623 26.9625 61.6936 26.694 61.5021 26.3507C61.3159 26.0074 61.2228 25.6199 61.2228 25.188C61.2228 24.7617 61.3132 24.3769 61.4941 24.0336C61.6803 23.6904 61.933 23.4246 62.2522 23.2364C62.5767 23.0426 62.9411 22.9457 63.3454 22.9457C63.7497 22.9457 64.1088 23.0426 64.4226 23.2364C64.7418 23.4246 64.9892 23.6904 65.1648 24.0336C65.3456 24.3769 65.4361 24.77 65.4361 25.2129ZM63.3454 23.6184C62.9783 23.6184 62.6698 23.7347 62.4198 23.9672C62.1751 24.1997 62.0314 24.5043 61.9889 24.8807H64.7019C64.6594 24.5098 64.5131 24.2081 64.2631 23.9755C64.0183 23.7374 63.7125 23.6184 63.3454 23.6184Z" fill="white"/>
<path d="M72.6326 21.2266V27.3888H71.8984V26.6912C71.7282 26.9348 71.5128 27.1203 71.2521 27.2476C70.9914 27.375 70.7042 27.4387 70.3903 27.4387C69.9807 27.4387 69.6136 27.3445 69.2891 27.1563C68.9646 26.9681 68.7093 26.7051 68.5231 26.3673C68.3422 26.0241 68.2518 25.631 68.2518 25.188C68.2518 24.7451 68.3422 24.3548 68.5231 24.017C68.7093 23.6793 68.9646 23.4163 69.2891 23.2281C69.6136 23.0398 69.9807 22.9457 70.3903 22.9457C70.6935 22.9457 70.9728 23.0066 71.2282 23.1284C71.4835 23.2447 71.6963 23.4191 71.8665 23.6516V21.2266H72.6326ZM70.4541 26.7411C70.7201 26.7411 70.9622 26.6774 71.1803 26.55C71.3984 26.4172 71.5686 26.2345 71.691 26.0019C71.8133 25.7638 71.8745 25.4925 71.8745 25.188C71.8745 24.8835 71.8133 24.615 71.691 24.3825C71.5686 24.1444 71.3984 23.9617 71.1803 23.8343C70.9622 23.707 70.7201 23.6433 70.4541 23.6433C70.1828 23.6433 69.9381 23.707 69.72 23.8343C69.5072 23.9617 69.337 24.1444 69.2093 24.3825C69.087 24.615 69.0258 24.8835 69.0258 25.188C69.0258 25.4925 69.087 25.7638 69.2093 26.0019C69.337 26.2345 69.5072 26.4172 69.72 26.55C69.9381 26.6774 70.1828 26.7411 70.4541 26.7411Z" fill="white"/>
<path d="M77.9042 25.2129C77.9042 25.2738 77.8989 25.3541 77.8883 25.4538H74.457C74.5049 25.8414 74.6672 26.1542 74.9438 26.3922C75.2257 26.6248 75.5742 26.7411 75.9891 26.7411C76.4945 26.7411 76.9015 26.5639 77.21 26.2095L77.6329 26.7244C77.4414 26.957 77.202 27.1341 76.9148 27.256C76.6328 27.3778 76.3163 27.4387 75.9652 27.4387C75.5183 27.4387 75.122 27.3445 74.7762 27.1563C74.4304 26.9625 74.1618 26.694 73.9703 26.3507C73.7841 26.0074 73.691 25.6199 73.691 25.188C73.691 24.7617 73.7814 24.3769 73.9623 24.0336C74.1485 23.6904 74.4012 23.4246 74.7204 23.2364C75.0449 23.0426 75.4093 22.9457 75.8136 22.9457C76.2179 22.9457 76.577 23.0426 76.8908 23.2364C77.21 23.4246 77.4574 23.6904 77.6329 24.0336C77.8138 24.3769 77.9042 24.77 77.9042 25.2129ZM75.8136 23.6184C75.4465 23.6184 75.138 23.7347 74.8879 23.9672C74.6432 24.1997 74.4996 24.5043 74.457 24.8807H77.1701C77.1276 24.5098 76.9813 24.2081 76.7312 23.9755C76.4865 23.7374 76.1806 23.6184 75.8136 23.6184Z" fill="white"/>
<path d="M82.6325 22.9872L80.7812 27.3888H79.9992L78.1479 22.9872H78.9459L80.3982 26.5168L81.8824 22.9872H82.6325Z" fill="white"/>
<path d="M87.0528 25.2129C87.0528 25.2738 87.0475 25.3541 87.0368 25.4538H83.6056C83.6534 25.8414 83.8157 26.1542 84.0923 26.3922C84.3743 26.6248 84.7227 26.7411 85.1377 26.7411C85.643 26.7411 86.05 26.5639 86.3585 26.2095L86.7815 26.7244C86.59 26.957 86.3506 27.1341 86.0633 27.256C85.7813 27.3778 85.4648 27.4387 85.1137 27.4387C84.6669 27.4387 84.2705 27.3445 83.9248 27.1563C83.579 26.9625 83.3103 26.694 83.1188 26.3507C82.9326 26.0074 82.8395 25.6199 82.8395 25.188C82.8395 24.7617 82.93 24.3769 83.1108 24.0336C83.297 23.6904 83.5497 23.4246 83.8689 23.2364C84.1934 23.0426 84.5578 22.9457 84.9621 22.9457C85.3664 22.9457 85.7255 23.0426 86.0394 23.2364C86.3585 23.4246 86.6059 23.6904 86.7815 24.0336C86.9623 24.3769 87.0528 24.77 87.0528 25.2129ZM84.9621 23.6184C84.595 23.6184 84.2865 23.7347 84.0365 23.9672C83.7918 24.1997 83.6481 24.5043 83.6056 24.8807H86.3186C86.2761 24.5098 86.1298 24.2081 85.8798 23.9755C85.6351 23.7374 85.3292 23.6184 84.9621 23.6184Z" fill="white"/>
<path d="M88.1165 21.2266H88.8825V27.3888H88.1165V21.2266Z" fill="white"/>
<path d="M92.1566 27.4387C91.7363 27.4387 91.3586 27.3418 91.0235 27.148C90.6883 26.9542 90.425 26.6885 90.2335 26.3507C90.0473 26.0074 89.9542 25.6199 89.9542 25.188C89.9542 24.7562 90.0473 24.3714 90.2335 24.0336C90.425 23.6904 90.6883 23.4246 91.0235 23.2364C91.3586 23.0426 91.7363 22.9457 92.1566 22.9457C92.5768 22.9457 92.9519 23.0426 93.2817 23.2364C93.6168 23.4246 93.8775 23.6904 94.0637 24.0336C94.2552 24.3714 94.351 24.7562 94.351 25.188C94.351 25.6199 94.2552 26.0074 94.0637 26.3507C93.8775 26.6885 93.6168 26.9542 93.2817 27.148C92.9519 27.3418 92.5768 27.4387 92.1566 27.4387ZM92.1566 26.7411C92.4279 26.7411 92.6699 26.6774 92.8827 26.55C93.1008 26.4172 93.2711 26.2345 93.3934 26.0019C93.5158 25.7638 93.5769 25.4925 93.5769 25.188C93.5769 24.8835 93.5158 24.615 93.3934 24.3825C93.2711 24.1444 93.1008 23.9617 92.8827 23.8343C92.6699 23.707 92.4279 23.6433 92.1566 23.6433C91.8853 23.6433 91.6405 23.707 91.4224 23.8343C91.2096 23.9617 91.0394 24.1444 90.9117 24.3825C90.7894 24.615 90.7282 24.8835 90.7282 25.188C90.7282 25.4925 90.7894 25.7638 90.9117 26.0019C91.0394 26.2345 91.2096 26.4172 91.4224 26.55C91.6405 26.6774 91.8853 26.7411 92.1566 26.7411Z" fill="white"/>
<path d="M97.6527 22.9457C98.0623 22.9457 98.4294 23.0398 98.7539 23.2281C99.0784 23.4163 99.331 23.6793 99.5119 24.017C99.6981 24.3548 99.7912 24.7451 99.7912 25.188C99.7912 25.631 99.6981 26.0241 99.5119 26.3673C99.331 26.7051 99.0784 26.9681 98.7539 27.1563C98.4294 27.3445 98.0623 27.4387 97.6527 27.4387C97.3494 27.4387 97.0702 27.3778 96.8148 27.256C96.5648 27.1341 96.352 26.957 96.1764 26.7244V29H95.4104V22.9872H96.1445V23.6848C96.3147 23.4412 96.5302 23.2585 96.7909 23.1367C97.0515 23.0094 97.3388 22.9457 97.6527 22.9457ZM97.5888 26.7411C97.8601 26.7411 98.1022 26.6774 98.315 26.55C98.5331 26.4172 98.7033 26.2345 98.8257 26.0019C98.9533 25.7638 99.0172 25.4925 99.0172 25.188C99.0172 24.8835 98.9533 24.615 98.8257 24.3825C98.7033 24.1444 98.5331 23.9617 98.315 23.8343C98.1022 23.707 97.8601 23.6433 97.5888 23.6433C97.3228 23.6433 97.0808 23.7098 96.8627 23.8426C96.6499 23.97 96.4797 24.1499 96.352 24.3825C96.2296 24.615 96.1684 24.8835 96.1684 25.188C96.1684 25.4925 96.2296 25.7638 96.352 26.0019C96.4743 26.2345 96.6446 26.4172 96.8627 26.55C97.0808 26.6774 97.3228 26.7411 97.5888 26.7411Z" fill="white"/>
<path d="M106.14 22.9457C106.672 22.9457 107.092 23.1063 107.401 23.4274C107.715 23.7485 107.872 24.2247 107.872 24.8558V27.3888H107.106V24.9472C107.106 24.5209 107.01 24.1997 106.818 23.9838C106.632 23.7679 106.364 23.6599 106.012 23.6599C105.624 23.6599 105.316 23.7873 105.087 24.042C104.858 24.2911 104.744 24.651 104.744 25.1216V27.3888H103.978V24.9472C103.978 24.5209 103.882 24.1997 103.69 23.9838C103.504 23.7679 103.236 23.6599 102.884 23.6599C102.496 23.6599 102.188 23.7873 101.959 24.042C101.73 24.2911 101.616 24.651 101.616 25.1216V27.3888H100.85V22.9872H101.584V23.6433C101.738 23.4163 101.94 23.2447 102.19 23.1284C102.44 23.0066 102.725 22.9457 103.044 22.9457C103.374 22.9457 103.666 23.0149 103.922 23.1533C104.177 23.2917 104.374 23.4938 104.512 23.7596C104.672 23.5049 104.893 23.3056 105.175 23.1616C105.462 23.0177 105.784 22.9457 106.14 22.9457Z" fill="white"/>
<path d="M113.127 25.2129C113.127 25.2738 113.122 25.3541 113.111 25.4538H109.68C109.728 25.8414 109.89 26.1542 110.166 26.3922C110.448 26.6248 110.797 26.7411 111.212 26.7411C111.717 26.7411 112.124 26.5639 112.433 26.2095L112.856 26.7244C112.664 26.957 112.425 27.1341 112.137 27.256C111.855 27.3778 111.539 27.4387 111.188 27.4387C110.741 27.4387 110.345 27.3445 109.999 27.1563C109.653 26.9625 109.384 26.694 109.193 26.3507C109.007 26.0074 108.914 25.6199 108.914 25.188C108.914 24.7617 109.004 24.3769 109.185 24.0336C109.371 23.6904 109.624 23.4246 109.943 23.2364C110.267 23.0426 110.632 22.9457 111.036 22.9457C111.44 22.9457 111.8 23.0426 112.113 23.2364C112.433 23.4246 112.68 23.6904 112.856 24.0336C113.036 24.3769 113.127 24.77 113.127 25.2129ZM111.036 23.6184C110.669 23.6184 110.361 23.7347 110.111 23.9672C109.866 24.1997 109.722 24.5043 109.68 24.8807H112.393C112.35 24.5098 112.204 24.2081 111.954 23.9755C111.709 23.7374 111.403 23.6184 111.036 23.6184Z" fill="white"/>
<path d="M116.449 22.9457C116.986 22.9457 117.412 23.109 117.726 23.4357C118.045 23.7568 118.204 24.2302 118.204 24.8558V27.3888H117.438V24.9472C117.438 24.5209 117.34 24.1997 117.143 23.9838C116.946 23.7679 116.664 23.6599 116.297 23.6599C115.882 23.6599 115.555 23.7873 115.316 24.042C115.076 24.2911 114.957 24.651 114.957 25.1216V27.3888H114.191V22.9872H114.925V23.6516C115.079 23.4246 115.286 23.2502 115.547 23.1284C115.813 23.0066 116.114 22.9457 116.449 22.9457Z" fill="white"/>
<path d="M122 27.1314C121.888 27.231 121.75 27.3086 121.585 27.3639C121.42 27.4137 121.25 27.4387 121.074 27.4387C120.649 27.4387 120.319 27.3196 120.085 27.0816C119.851 26.8435 119.734 26.503 119.734 26.06V23.6433H119.016V22.9872H119.734V22.0239H120.5V22.9872H121.713V23.6433H120.5V26.0268C120.5 26.2649 120.556 26.4476 120.667 26.575C120.784 26.7023 120.949 26.766 121.162 26.766C121.396 26.766 121.596 26.6968 121.761 26.5583L122 27.1314Z" fill="white"/>
</svg>
