<svg width="83" height="29" viewBox="0 0 83 29" fill="none" xmlns="http://www.w3.org/2000/svg">
<path d="M5.86271 0.108792H7.01668V9.62818H5.86271V8.45866C5.28793 9.3562 4.4523 9.80497 3.3558 9.80497C2.42732 9.80497 1.6359 9.46046 0.98154 8.77144C0.32718 8.07335 0 7.22567 0 6.2284C0 5.23113 0.32718 4.38798 0.98154 3.69896C1.6359 3.00087 2.42732 2.65183 3.3558 2.65183C4.4523 2.65183 5.28793 3.1006 5.86271 3.99814V0.108792ZM3.50171 8.66264C4.17375 8.66264 4.73527 8.43146 5.18624 7.96909C5.63722 7.49765 5.86271 6.91742 5.86271 6.2284C5.86271 5.53938 5.63722 4.96368 5.18624 4.50131C4.73527 4.02987 4.17375 3.79416 3.50171 3.79416C2.83851 3.79416 2.28142 4.02987 1.83044 4.50131C1.37946 4.96368 1.15397 5.53938 1.15397 6.2284C1.15397 6.91742 1.37946 7.49765 1.83044 7.96909C2.28142 8.43146 2.83851 8.66264 3.50171 8.66264Z" fill="#00094A"/>
<path d="M9.57416 6.77236C9.68911 7.37979 9.95881 7.85123 10.3833 8.18667C10.8166 8.52212 11.3471 8.68984 11.9749 8.68984C12.8504 8.68984 13.4871 8.35893 13.885 7.69711L14.8665 8.26827C14.221 9.29274 13.2483 9.80497 11.9484 9.80497C10.8961 9.80497 10.0384 9.46953 9.3752 8.79864C8.72084 8.11868 8.39366 7.26193 8.39366 6.2284C8.39366 5.20393 8.71642 4.35172 9.36193 3.67176C10.0075 2.99181 10.8431 2.65183 11.8688 2.65183C12.8415 2.65183 13.633 3.00541 14.2431 3.71256C14.8621 4.41065 15.1716 5.2538 15.1716 6.242C15.1716 6.41425 15.1583 6.59104 15.1318 6.77236H9.57416ZM11.8688 3.76696C11.2498 3.76696 10.737 3.94828 10.3302 4.31092C9.92344 4.6645 9.67143 5.14047 9.57416 5.73883H14.0044C13.9071 5.09514 13.6595 4.60557 13.2616 4.27013C12.8636 3.93468 12.3994 3.76696 11.8688 3.76696Z" fill="#00094A"/>
<path d="M17.2338 4.6645C17.2338 4.92742 17.3621 5.14047 17.6185 5.30366C17.8749 5.45778 18.1844 5.58471 18.547 5.68443C18.9095 5.7751 19.2721 5.88389 19.6346 6.01081C19.9972 6.12867 20.3067 6.33719 20.5631 6.63637C20.8196 6.92649 20.9478 7.30273 20.9478 7.7651C20.9478 8.3816 20.7134 8.8757 20.2448 9.24741C19.785 9.61912 19.1925 9.80497 18.4674 9.80497C17.8219 9.80497 17.2692 9.65991 16.8094 9.3698C16.3496 9.07968 16.0224 8.69438 15.8278 8.21387L16.8227 7.62911C16.9288 7.95549 17.1277 8.21387 17.4195 8.40426C17.7113 8.59465 18.0606 8.68984 18.4674 8.68984C18.8476 8.68984 19.1615 8.61731 19.4091 8.47226C19.6567 8.31813 19.7805 8.08241 19.7805 7.7651C19.7805 7.50218 19.6523 7.29366 19.3959 7.13954C19.1394 6.97635 18.8299 6.84943 18.4674 6.75877C18.1048 6.65904 17.7423 6.54571 17.3797 6.41879C17.0172 6.29186 16.7077 6.08334 16.4513 5.79323C16.1948 5.50311 16.0666 5.1314 16.0666 4.6781C16.0666 4.0888 16.2877 3.60377 16.7298 3.22299C17.1808 2.84222 17.7423 2.65183 18.4143 2.65183C18.9537 2.65183 19.4312 2.77875 19.8469 3.0326C20.2713 3.27739 20.5896 3.6219 20.8019 4.06614L19.8336 4.6237C19.5948 4.04347 19.1218 3.75336 18.4143 3.75336C18.0872 3.75336 17.8086 3.83495 17.5787 3.99814C17.3488 4.15227 17.2338 4.37439 17.2338 4.6645Z" fill="#00094A"/>
<path d="M22.8329 1.5911C22.6119 1.5911 22.4262 1.51404 22.2758 1.35991C22.1255 1.20579 22.0503 1.01993 22.0503 0.802348C22.0503 0.584762 22.1255 0.398907 22.2758 0.244783C22.4262 0.0815944 22.6119 0 22.8329 0C23.0451 0 23.2264 0.0815944 23.3767 0.244783C23.5271 0.398907 23.6022 0.584762 23.6022 0.802348C23.6022 1.01993 23.5271 1.20579 23.3767 1.35991C23.2264 1.51404 23.0451 1.5911 22.8329 1.5911ZM22.2493 9.62818V2.82862H23.4033V9.62818H22.2493Z" fill="#00094A"/>
<path d="M30.6683 2.82862H31.8091V9.3426C31.8091 10.3489 31.4775 11.1286 30.8143 11.6817C30.1511 12.2437 29.3552 12.5248 28.4267 12.5248C27.6839 12.5248 27.0428 12.3797 26.5034 12.0896C25.964 11.8086 25.5573 11.4006 25.2831 10.8657L26.2912 10.2809C26.6538 11.0425 27.3744 11.4233 28.4533 11.4233C29.143 11.4233 29.6824 11.2374 30.0715 10.8657C30.4694 10.494 30.6683 9.98629 30.6683 9.3426V8.37706C30.0847 9.28367 29.2535 9.73697 28.1747 9.73697C27.2285 9.73697 26.4283 9.39246 25.7739 8.70344C25.1196 8.01442 24.7924 7.17581 24.7924 6.1876C24.7924 5.1994 25.1196 4.36532 25.7739 3.68536C26.4283 2.99634 27.2285 2.65183 28.1747 2.65183C29.2624 2.65183 30.0936 3.1006 30.6683 3.99814V2.82862ZM26.6228 7.91469C27.0738 8.37706 27.6353 8.60825 28.3073 8.60825C28.9794 8.60825 29.5409 8.37706 29.9919 7.91469C30.4429 7.45232 30.6683 6.87662 30.6683 6.1876C30.6683 5.50765 30.4429 4.93648 29.9919 4.47411C29.5409 4.01174 28.9794 3.78056 28.3073 3.78056C27.6353 3.78056 27.0738 4.01174 26.6228 4.47411C26.1718 4.93648 25.9463 5.50765 25.9463 6.1876C25.9463 6.87662 26.1718 7.45232 26.6228 7.91469Z" fill="#00094A"/>
<path d="M36.8602 2.65183C37.6383 2.65183 38.2617 2.90568 38.7304 3.41338C39.1991 3.91202 39.4334 4.59197 39.4334 5.45325V9.62818H38.2794V5.52125C38.2794 4.96821 38.1335 4.54211 37.8417 4.24293C37.5499 3.93468 37.1476 3.78056 36.6347 3.78056C36.0599 3.78056 35.5957 3.96641 35.242 4.33812C34.8883 4.70076 34.7114 5.26286 34.7114 6.02441V9.62818H33.5574V2.82862H34.7114V3.80776C35.1801 3.03714 35.8963 2.65183 36.8602 2.65183Z" fill="#00094A"/>
<path d="M41.8535 6.77236C41.9684 7.37979 42.2381 7.85123 42.6626 8.18667C43.0959 8.52212 43.6264 8.68984 44.2543 8.68984C45.1297 8.68984 45.7664 8.35893 46.1643 7.69711L47.1458 8.26827C46.5003 9.29274 45.5276 9.80497 44.2277 9.80497C43.1754 9.80497 42.3177 9.46953 41.6545 8.79864C41.0001 8.11868 40.673 7.26193 40.673 6.2284C40.673 5.20393 40.9957 4.35172 41.6412 3.67176C42.2868 2.99181 43.1224 2.65183 44.1481 2.65183C45.1208 2.65183 45.9123 3.00541 46.5224 3.71256C47.1414 4.41065 47.4509 5.2538 47.4509 6.242C47.4509 6.41425 47.4376 6.59104 47.4111 6.77236H41.8535ZM44.1481 3.76696C43.5292 3.76696 43.0163 3.94828 42.6095 4.31092C42.2028 4.6645 41.9507 5.14047 41.8535 5.73883H46.2837C46.1864 5.09514 45.9388 4.60557 45.5409 4.27013C45.1429 3.93468 44.6787 3.76696 44.1481 3.76696Z" fill="#00094A"/>
<path d="M54.2558 0.108792H55.4097V9.62818H54.2558V8.45866C53.681 9.3562 52.8454 9.80497 51.7489 9.80497C50.8204 9.80497 50.029 9.46046 49.3746 8.77144C48.7202 8.07335 48.3931 7.22567 48.3931 6.2284C48.3931 5.23113 48.7202 4.38798 49.3746 3.69896C50.029 3.00087 50.8204 2.65183 51.7489 2.65183C52.8454 2.65183 53.681 3.1006 54.2558 3.99814V0.108792ZM51.8948 8.66264C52.5668 8.66264 53.1283 8.43146 53.5793 7.96909C54.0303 7.49765 54.2558 6.91742 54.2558 6.2284C54.2558 5.53938 54.0303 4.96368 53.5793 4.50131C53.1283 4.02987 52.5668 3.79416 51.8948 3.79416C51.2316 3.79416 50.6745 4.02987 50.2235 4.50131C49.7725 4.96368 49.547 5.53938 49.547 6.2284C49.547 6.91742 49.7725 7.49765 50.2235 7.96909C50.6745 8.43146 51.2316 8.66264 51.8948 8.66264Z" fill="#00094A"/>
<path d="M65.9654 2.82862H67.1194V9.62818H65.9654V8.45866C65.3907 9.3562 64.555 9.80497 63.4585 9.80497C62.53 9.80497 61.7386 9.46046 61.0843 8.77144C60.4299 8.07335 60.1027 7.22567 60.1027 6.2284C60.1027 5.23113 60.4299 4.38798 61.0843 3.69896C61.7386 3.00087 62.53 2.65183 63.4585 2.65183C64.555 2.65183 65.3907 3.1006 65.9654 3.99814V2.82862ZM63.6044 8.66264C64.2765 8.66264 64.838 8.43146 65.289 7.96909C65.7399 7.49765 65.9654 6.91742 65.9654 6.2284C65.9654 5.53938 65.7399 4.96368 65.289 4.50131C64.838 4.02987 64.2765 3.79416 63.6044 3.79416C62.9412 3.79416 62.3841 4.02987 61.9332 4.50131C61.4822 4.96368 61.2567 5.53938 61.2567 6.2284C61.2567 6.91742 61.4822 7.49765 61.9332 7.96909C62.3841 8.43146 62.9412 8.66264 63.6044 8.66264Z" fill="#00094A"/>
<path d="M72.1705 2.65183C72.9487 2.65183 73.5721 2.90568 74.0407 3.41338C74.5094 3.91202 74.7437 4.59197 74.7437 5.45325V9.62818H73.5898V5.52125C73.5898 4.96821 73.4439 4.54211 73.1521 4.24293C72.8602 3.93468 72.4579 3.78056 71.945 3.78056C71.3703 3.78056 70.906 3.96641 70.5523 4.33812C70.1986 4.70076 70.0217 5.26286 70.0217 6.02441V9.62818H68.8678V2.82862H70.0217V3.80776C70.4904 3.03714 71.2067 2.65183 72.1705 2.65183Z" fill="#00094A"/>
<path d="M81.846 0.108792H83V9.62818H81.846V8.45866C81.2713 9.3562 80.4356 9.80497 79.3391 9.80497C78.4106 9.80497 77.6192 9.46046 76.9649 8.77144C76.3105 8.07335 75.9833 7.22567 75.9833 6.2284C75.9833 5.23113 76.3105 4.38798 76.9649 3.69896C77.6192 3.00087 78.4106 2.65183 79.3391 2.65183C80.4356 2.65183 81.2713 3.1006 81.846 3.99814V0.108792ZM79.485 8.66264C80.1571 8.66264 80.7186 8.43146 81.1696 7.96909C81.6205 7.49765 81.846 6.91742 81.846 6.2284C81.846 5.53938 81.6205 4.96368 81.1696 4.50131C80.7186 4.02987 80.1571 3.79416 79.485 3.79416C78.8218 3.79416 78.2647 4.02987 77.8138 4.50131C77.3628 4.96368 77.1373 5.53938 77.1373 6.2284C77.1373 6.91742 77.3628 7.49765 77.8138 7.96909C78.2647 8.43146 78.8218 8.66264 79.485 8.66264Z" fill="#00094A"/>
<path d="M5.86271 16.7608H7.01668V26.2802H5.86271V25.1106C5.28793 26.0082 4.4523 26.457 3.3558 26.457C2.42732 26.457 1.6359 26.1125 0.98154 25.4234C0.32718 24.7253 0 23.8777 0 22.8804C0 21.8831 0.32718 21.04 0.98154 20.351C1.6359 19.6529 2.42732 19.3038 3.3558 19.3038C4.4523 19.3038 5.28793 19.7526 5.86271 20.6501V16.7608ZM3.50171 25.3146C4.17375 25.3146 4.73527 25.0835 5.18624 24.6211C5.63722 24.1496 5.86271 23.5694 5.86271 22.8804C5.86271 22.1914 5.63722 21.6157 5.18624 21.1533C4.73527 20.6819 4.17375 20.4461 3.50171 20.4461C2.83851 20.4461 2.28142 20.6819 1.83044 21.1533C1.37946 21.6157 1.15397 22.1914 1.15397 22.8804C1.15397 23.5694 1.37946 24.1496 1.83044 24.6211C2.28142 25.0835 2.83851 25.3146 3.50171 25.3146Z" fill="#00094A"/>
<path d="M9.57416 23.4244C9.68911 24.0318 9.95881 24.5032 10.3833 24.8387C10.8166 25.1741 11.3471 25.3418 11.9749 25.3418C12.8504 25.3418 13.4871 25.0109 13.885 24.3491L14.8665 24.9203C14.221 25.9447 13.2483 26.457 11.9484 26.457C10.8961 26.457 10.0384 26.1215 9.3752 25.4506C8.72084 24.7707 8.39366 23.9139 8.39366 22.8804C8.39366 21.8559 8.71642 21.0037 9.36193 20.3238C10.0075 19.6438 10.8431 19.3038 11.8688 19.3038C12.8415 19.3038 13.633 19.6574 14.2431 20.3646C14.8621 21.0626 15.1716 21.9058 15.1716 22.894C15.1716 23.0662 15.1583 23.243 15.1318 23.4244H9.57416ZM11.8688 20.419C11.2498 20.419 10.737 20.6003 10.3302 20.9629C9.92344 21.3165 9.67143 21.7925 9.57416 22.3908H14.0044C13.9071 21.7471 13.6595 21.2576 13.2616 20.9221C12.8636 20.5867 12.3994 20.419 11.8688 20.419Z" fill="#00094A"/>
<path d="M20.8814 19.4806H22.1283L19.4755 26.2802H18.1225L15.4697 19.4806H16.7165L18.799 25.0155L20.8814 19.4806Z" fill="#00094A"/>
<path d="M23.6543 23.4244C23.7692 24.0318 24.0389 24.5032 24.4634 24.8387C24.8967 25.1741 25.4272 25.3418 26.0551 25.3418C26.9305 25.3418 27.5672 25.0109 27.9651 24.3491L28.9466 24.9203C28.3011 25.9447 27.3284 26.457 26.0285 26.457C24.9762 26.457 24.1185 26.1215 23.4553 25.4506C22.8009 24.7707 22.4738 23.9139 22.4738 22.8804C22.4738 21.8559 22.7965 21.0037 23.442 20.3238C24.0876 19.6438 24.9232 19.3038 25.9489 19.3038C26.9216 19.3038 27.7131 19.6574 28.3232 20.3646C28.9422 21.0626 29.2517 21.9058 29.2517 22.894C29.2517 23.0662 29.2384 23.243 29.2119 23.4244H23.6543ZM25.9489 20.419C25.33 20.419 24.8171 20.6003 24.4103 20.9629C24.0035 21.3165 23.7515 21.7925 23.6543 22.3908H28.0845C27.9872 21.7471 27.7396 21.2576 27.3417 20.9221C26.9437 20.5867 26.4795 20.419 25.9489 20.419Z" fill="#00094A"/>
<path d="M30.5782 26.2802V16.3528H31.7322V26.2802H30.5782Z" fill="#00094A"/>
<path d="M39.0901 25.4234C38.4092 26.1125 37.5824 26.457 36.6097 26.457C35.637 26.457 34.8102 26.1125 34.1293 25.4234C33.4573 24.7344 33.1213 23.8867 33.1213 22.8804C33.1213 21.8741 33.4573 21.0264 34.1293 20.3374C34.8102 19.6483 35.637 19.3038 36.6097 19.3038C37.5824 19.3038 38.4092 19.6483 39.0901 20.3374C39.771 21.0264 40.1114 21.8741 40.1114 22.8804C40.1114 23.8867 39.771 24.7344 39.0901 25.4234ZM36.6097 25.301C37.2729 25.301 37.83 25.0699 38.281 24.6075C38.732 24.1451 38.9575 23.5694 38.9575 22.8804C38.9575 22.1914 38.732 21.6157 38.281 21.1533C37.83 20.6909 37.2729 20.4597 36.6097 20.4597C35.9554 20.4597 35.4027 20.6909 34.9517 21.1533C34.5007 21.6157 34.2752 22.1914 34.2752 22.8804C34.2752 23.5694 34.5007 24.1451 34.9517 24.6075C35.4027 25.0699 35.9554 25.301 36.6097 25.301Z" fill="#00094A"/>
<path d="M45.1327 19.3038C46.0612 19.3038 46.8526 19.6529 47.507 20.351C48.1613 21.04 48.4885 21.8831 48.4885 22.8804C48.4885 23.8777 48.1613 24.7253 47.507 25.4234C46.8526 26.1125 46.0612 26.457 45.1327 26.457C44.0362 26.457 43.2006 26.0082 42.6258 25.1106V29H41.4718V19.4806H42.6258V20.6501C43.2006 19.7526 44.0362 19.3038 45.1327 19.3038ZM44.9868 25.3146C45.65 25.3146 46.2071 25.0835 46.6581 24.6211C47.109 24.1496 47.3345 23.5694 47.3345 22.8804C47.3345 22.1914 47.109 21.6157 46.6581 21.1533C46.2071 20.6819 45.65 20.4461 44.9868 20.4461C44.3147 20.4461 43.7532 20.6819 43.3022 21.1533C42.8513 21.6157 42.6258 22.1914 42.6258 22.8804C42.6258 23.5694 42.8513 24.1496 43.3022 24.6211C43.7532 25.0835 44.3147 25.3146 44.9868 25.3146Z" fill="#00094A"/>
<path d="M50.6746 23.4244C50.7895 24.0318 51.0592 24.5032 51.4837 24.8387C51.917 25.1741 52.4475 25.3418 53.0754 25.3418C53.9508 25.3418 54.5875 25.0109 54.9854 24.3491L55.9669 24.9203C55.3214 25.9447 54.3487 26.457 53.0488 26.457C51.9966 26.457 51.1388 26.1215 50.4756 25.4506C49.8213 24.7707 49.4941 23.9139 49.4941 22.8804C49.4941 21.8559 49.8168 21.0037 50.4624 20.3238C51.1079 19.6438 51.9435 19.3038 52.9693 19.3038C53.942 19.3038 54.7334 19.6574 55.3435 20.3646C55.9625 21.0626 56.272 21.9058 56.272 22.894C56.272 23.0662 56.2587 23.243 56.2322 23.4244H50.6746ZM52.9693 20.419C52.3503 20.419 51.8374 20.6003 51.4306 20.9629C51.0239 21.3165 50.7718 21.7925 50.6746 22.3908H55.1048C55.0075 21.7471 54.7599 21.2576 54.362 20.9221C53.9641 20.5867 53.4998 20.419 52.9693 20.419Z" fill="#00094A"/>
<path d="M63.0769 16.7608H64.2309V26.2802H63.0769V25.1106C62.5021 26.0082 61.6665 26.457 60.57 26.457C59.6415 26.457 58.8501 26.1125 58.1957 25.4234C57.5414 24.7253 57.2142 23.8777 57.2142 22.8804C57.2142 21.8831 57.5414 21.04 58.1957 20.351C58.8501 19.6529 59.6415 19.3038 60.57 19.3038C61.6665 19.3038 62.5021 19.7526 63.0769 20.6501V16.7608ZM60.7159 25.3146C61.3879 25.3146 61.9494 25.0835 62.4004 24.6211C62.8514 24.1496 63.0769 23.5694 63.0769 22.8804C63.0769 22.1914 62.8514 21.6157 62.4004 21.1533C61.9494 20.6819 61.3879 20.4461 60.7159 20.4461C60.0527 20.4461 59.4956 20.6819 59.0446 21.1533C58.5936 21.6157 58.3681 22.1914 58.3681 22.8804C58.3681 23.5694 58.5936 24.1496 59.0446 24.6211C59.4956 25.0835 60.0527 25.3146 60.7159 25.3146Z" fill="#00094A"/>
<path d="M69.8788 18.2431C69.6578 18.2431 69.4721 18.166 69.3218 18.0119C69.1714 17.8578 69.0963 17.6719 69.0963 17.4543C69.0963 17.2368 69.1714 17.0509 69.3218 16.8968C69.4721 16.7336 69.6578 16.652 69.8788 16.652C70.0911 16.652 70.2723 16.7336 70.4227 16.8968C70.573 17.0509 70.6482 17.2368 70.6482 17.4543C70.6482 17.6719 70.573 17.8578 70.4227 18.0119C70.2723 18.166 70.0911 18.2431 69.8788 18.2431ZM69.2952 26.2802V19.4806H70.4492V26.2802H69.2952Z" fill="#00094A"/>
<path d="M75.5124 19.3038C76.2906 19.3038 76.914 19.5577 77.3827 20.0654C77.8513 20.564 78.0857 21.244 78.0857 22.1052V26.2802H76.9317V22.1732C76.9317 21.6202 76.7858 21.1941 76.494 20.8949C76.2022 20.5867 75.7998 20.4325 75.2869 20.4325C74.7122 20.4325 74.2479 20.6184 73.8942 20.9901C73.5405 21.3528 73.3637 21.9149 73.3637 22.6764V26.2802H72.2097V19.4806H73.3637V20.4597C73.8323 19.6891 74.5486 19.3038 75.5124 19.3038Z" fill="#00094A"/>
</svg>
